<svg width="100" height="25" viewBox="0 0 100 25" fill="none" xmlns="http://www.w3.org/2000/svg">
<path d="M99.1364 11.01L99.6464 12.78C95.4764 13.98 92.2664 17.88 90.3464 19.47C88.0664 22.44 87.6164 22.53 86.3864 22.53C85.2164 22.53 84.3164 21.81 84.3164 20.22C84.3164 19.05 84.7964 17.4 85.9664 15.21C88.6064 10.26 91.1564 7.53 93.5564 7.53C93.7964 7.53 94.0664 7.56 94.3064 7.62C94.3364 7.62 96.1664 8.07 96.1664 9.63C96.1664 9.99 96.0764 10.41 95.8364 10.92C95.8064 10.89 94.8164 14.58 88.9664 15.87C87.8264 18.27 87.1064 19.65 87.1064 20.31C87.1064 20.52 87.1964 20.7 87.3464 20.7C87.4364 20.7 87.5864 20.52 87.7664 20.52C87.7664 20.52 88.2764 20.37 88.2764 20.01L89.3564 18.69C89.5964 18.45 89.7764 18.21 89.7764 18.21C97.1564 11.25 99.1364 11.01 99.1364 11.01ZM93.7664 9.48C93.5864 9.51 91.4564 11.67 89.8964 14.13C92.5364 14.04 94.3664 10.5 94.3664 10.5C94.4564 10.23 94.5764 9.84 94.6064 9.33C94.3064 9.39 93.8864 9.45 93.7664 9.48Z" fill="#191919"/>
<path d="M88.5331 0.510001C88.8931 0.24 89.403 0 89.913 0C90.483 0 91.053 0.300002 91.563 1.17C91.563 1.17 90.573 2.7 89.703 3.99L89.673 4.05C88.323 6.12 88.353 5.82 86.823 8.52L85.113 11.19C82.623 14.64 81.123 18.42 80.583 20.13C86.673 12.15 88.563 11.58 88.563 11.58L89.373 13.29C84.723 15.51 81.993 21.18 80.403 22.29V22.53C80.253 22.53 80.133 22.53 79.983 22.5C79.893 22.53 79.833 22.53 79.773 22.53C79.653 22.53 79.593 22.5 79.563 22.38C78.393 21.96 77.373 20.61 77.373 19.38C77.373 18.45 78.9931 14.67 81.0331 11.28C81.0331 11.28 87.1531 1.02 88.5331 0.510001Z" fill="#191919"/>
<path d="M78.2752 7.74C78.7252 8.34 78.9652 9.06 78.9652 9.9C78.9652 12.09 77.4352 15.03 74.6152 18.63C72.4252 21.45 70.6552 22.5 69.4252 22.5C67.7752 22.5 66.0352 21.15 66.0352 19.32C66.0352 18.54 67.7152 14.43 69.7252 11.25C69.7252 11.25 75.8452 1.02 77.1952 0.510001C77.5552 0.24 78.0652 0 78.5752 0C79.1452 0 79.7152 0.300002 80.2252 1.14C80.2252 1.14 79.2352 2.7 78.3652 3.96L78.3352 4.02C77.2552 5.7 77.4652 5.28 76.5652 6.66C77.6152 6.93 78.1252 7.62 78.2752 7.74ZM76.7452 9C76.7152 8.85 76.6252 8.46 76.5352 8.16C75.3952 8.73 75.0352 9.45 73.8652 11.04L73.8052 11.16C71.4652 14.37 70.0552 17.82 69.3952 19.68C70.0252 19.41 71.0752 18.09 72.9052 15.96C75.1552 13.32 76.8352 9.12 76.7452 9Z" fill="#191919"/>
<path d="M70.6069 10.68L71.3869 12.33C66.8269 14.52 62.2669 21.33 60.7369 22.35V22.38C60.4969 22.38 60.2869 22.53 60.1969 22.53C60.0169 22.53 59.9569 22.41 59.9569 22.26C58.8169 21.87 57.8869 20.67 57.7669 19.5C55.4869 22.65 54.9169 22.5 53.8669 22.5C52.6969 22.5 51.7969 21.78 51.7969 20.19C51.7969 19.05 52.2769 17.4 53.4469 15.21C56.0869 10.23 58.6069 7.53 61.0069 7.53C61.2169 7.53 62.5069 7.35 63.3769 8.67C63.9769 7.95 64.5469 7.5 64.9669 7.5C65.0269 7.5 65.0569 7.53 65.1169 7.53C67.0669 7.98 67.0369 9.24 67.0369 9.24C63.1669 13.41 61.2469 18.87 60.7369 20.49C66.8269 12.48 70.6069 10.68 70.6069 10.68ZM54.7069 20.64C54.7369 20.67 54.7969 20.7 54.8269 20.7C55.9669 20.7 60.7369 12.81 61.8169 10.5C61.9369 10.23 62.0569 9.84 62.0569 9.33C61.7569 9.36 61.3669 9.45 61.2469 9.45C61.0369 9.51 57.9769 12.6 56.5369 15.66C55.3669 18.15 54.5869 19.62 54.5869 20.31C54.5869 20.46 54.6169 20.58 54.7069 20.64Z" fill="#191919"/>
<path d="M60.337 3.24C60.517 3.57 60.607 3.93 60.607 4.29C60.607 5.22 60.067 6.27 59.287 6.72C58.867 6.96 57.007 7.2 54.877 7.26C54.577 7.68 54.367 8.16 54.127 8.55L52.447 11.19C49.717 14.97 48.217 19.05 47.767 20.52C47.857 20.34 47.917 20.25 47.917 20.25C54.187 12.03 56.107 11.46 56.107 11.46L56.917 13.14C52.057 15.48 49.297 21.6 47.737 22.26V22.5C46.207 22.5 44.707 20.91 44.707 19.35C44.707 18.45 46.357 14.61 48.367 11.28C48.367 11.28 49.507 9.39 50.887 7.2C47.977 7.02 47.287 6.54 47.287 5.31C47.287 4.32 47.917 4.02 47.917 4.02C49.507 4.38 51.097 4.56 52.597 4.59C55.357 0.479998 56.047 0.0599976 57.217 0.0599976C57.757 0.0599976 58.327 0.359997 58.837 1.2C58.837 1.2 57.847 2.73 57.007 4.02L56.947 4.08C56.887 4.17 56.827 4.26 56.767 4.35C58.357 4.17 59.347 3.93 59.347 3.93L60.337 3.24Z" fill="#191919"/>
<path d="M48.03 11.91L48.81 13.56C43.65 15.99 41.1 22.5 39.54 22.5C39.33 22.5 39.3 22.41 39.3 22.23C38.13 21.84 37.11 20.52 37.11 19.29C37.11 18.66 38.04 16.44 39.3 14.01C36.39 17.13 33.96 21.09 32.94 22.08L33 22.5C31.5 22.5 30 20.97 30 19.41C30 17.94 35.19 7.5 37.29 7.5C37.35 7.5 37.38 7.5 37.44 7.5C39.39 7.98 39.36 9.21 39.36 9.24C35.94 12.96 34.02 17.67 33.24 19.89C38.04 12.6 40.89 10.05 42.3 9.18C43.08 8.16 43.8 7.5 44.34 7.5C44.37 7.5 44.43 7.5 44.46 7.5C46.38 7.98 46.35 9.21 46.35 9.24C42.54 13.38 40.62 18.78 40.08 20.46C46.14 12.48 48.03 11.91 48.03 11.91Z" fill="#191919"/>
<path d="M33.3415 14.04L34.1515 15.75C29.4715 17.97 26.7715 23.7 25.1815 24.72V24.75C25.2415 24.72 24.7915 24.9 24.6415 24.9C24.4615 24.9 24.4015 24.78 24.4015 24.63C23.1715 24.21 22.9315 22.86 22.8715 21.63C22.8715 20.31 26.2915 11.79 28.7515 9.9C28.1815 9.81 27.5515 9.72 26.9215 9.72C26.5015 9.72 25.8415 10.59 24.5815 12.21L21.8815 15.72C20.7115 17.16 19.6315 18.81 18.5815 20.01L16.5715 22.32L16.5115 22.41C16.3015 22.53 16.0615 22.59 15.9415 22.59C15.7915 22.59 15.7315 22.47 15.7315 22.32C14.5315 21.93 13.5715 20.58 13.5415 19.35L14.2615 17.16C14.4715 16.74 14.6515 16.32 14.8615 15.84C11.9215 18.48 10.0315 22.05 8.83148 22.83V22.86C8.50148 22.86 8.41148 23.04 8.26148 23.04C8.08148 23.04 8.02148 22.92 8.02148 22.74C6.82148 22.35 5.77148 20.97 5.77148 19.71C5.77148 18.21 11.0515 7.56 13.2115 7.56C13.2715 7.56 13.3015 7.56 13.3615 7.56C15.3715 8.04 15.3415 9.33 15.3415 9.33C11.3515 13.62 9.37148 19.26 8.83148 20.94C8.83148 20.91 8.83148 20.91 8.83148 20.91C13.8115 14.4 16.0615 12.66 16.7815 12.21C18.1615 9.93 19.6915 7.62 20.7415 7.62C20.8015 7.62 20.8315 7.62 20.8915 7.62C22.8415 8.1 22.8115 9.33 22.8115 9.33C19.0015 13.41 17.0815 18.75 16.5415 20.49C21.0715 14.52 24.4315 9.75 24.9715 9.06C24.9415 8.91 24.9115 8.76 24.9115 8.61C24.9115 7.86 25.1815 7.62 26.3515 7.56C30.6415 7.56 31.7215 8.7 31.7215 10.77C31.7215 10.95 31.6915 11.13 31.6615 11.28L31.6315 11.25C31.6315 11.28 31.6315 11.31 31.6315 11.31C27.7015 15.57 25.7215 21.15 25.1815 22.83C25.2115 22.8 25.2115 22.8 25.2115 22.8C31.4215 14.64 33.3415 14.04 33.3415 14.04Z" fill="#191919"/>
<path d="M16.89 2.55C17.01 2.94 17.07 3.27 17.07 3.56999C17.07 4.5 16.5 4.82999 16.5 4.82999C14.97 4.52999 13.47 4.43999 12.06 4.43999C11.76 4.92 11.19 5.79 10.68 6.57L10.62 6.62999C9.45 8.34 9.48 8.1 8.16 10.5L6.69 12.78C3.81 16.92 2.43 21.3 2.52 21.36L2.64 22.59C1.32 22.59 0 21.21 0 19.86C0 19.14 1.41 15.75 3.18 12.87C3.18 12.87 6.57 7.16999 8.52 4.70999C6.18 5.01 4.56 5.49 4.56 5.49L3.6 6.23999C3.36 5.88 3.24 5.46 3.24 5.01C3.24 4.08 3.75 3.06 4.5 2.55C5.13 2.13 9.15 1.62 12.45 1.62C14.73 1.62 16.65 1.86 16.89 2.55Z" fill="#191919"/>
</svg>
