<svg width="4" height="18" viewBox="0 0 4 18" fill="none" xmlns="http://www.w3.org/2000/svg">
<path d="M1 9C1 8.36882 1.51167 7.85714 2.14286 7.85714C2.77404 7.85714 3.28571 8.36882 3.28571 9C3.28571 9.63118 2.77404 10.1429 2.14286 10.1429C1.51167 10.1429 1 9.63118 1 9ZM1 2.14286C1 1.51167 1.51167 1 2.14286 1C2.77404 1 3.28571 1.51167 3.28571 2.14286C3.28571 2.77404 2.77404 3.28571 2.14286 3.28571C1.51167 3.28571 1 2.77404 1 2.14286ZM1 15.8571C1 15.226 1.51167 14.7143 2.14286 14.7143C2.77404 14.7143 3.28571 15.226 3.28571 15.8571C3.28571 16.4883 2.77404 17 2.14286 17C1.51167 17 1 16.4883 1 15.8571Z" fill="#9E9E9E" stroke="#9E9E9E" stroke-width="0.3" stroke-linecap="square"/>
</svg>
