<svg width="23" height="22" viewBox="0 0 23 22" fill="none" xmlns="http://www.w3.org/2000/svg">
<path d="M11.2105 14.0263C12.9546 14.0263 14.3684 12.6125 14.3684 10.8684C14.3684 9.12438 12.9546 7.71054 11.2105 7.71054C9.46648 7.71054 8.05264 9.12438 8.05264 10.8684C8.05264 12.6125 9.46648 14.0263 11.2105 14.0263Z" stroke="white" stroke-width="2" stroke-linecap="round" stroke-linejoin="round"/>
<path d="M4.5 10.8684C4.5 7.1623 7.5044 4.1579 11.2105 4.1579" stroke="white" stroke-width="2" stroke-linecap="round" stroke-linejoin="round"/>
<path d="M11.2105 20.7368C16.6607 20.7368 21.0789 16.3186 21.0789 10.8684C21.0789 5.41824 16.6607 1 11.2105 1C5.76034 1 1.3421 5.41824 1.3421 10.8684C1.3421 16.3186 5.76034 20.7368 11.2105 20.7368Z" stroke="white" stroke-width="2" stroke-linecap="round" stroke-linejoin="round"/>
</svg>
